<svg xmlns="http://www.w3.org/2000/svg" xmlns:svg="http://www.w3.org/2000/svg" id="Layer_1" width="175.206" height="88.309" x="0" y="0" version="1.1" viewBox="0 0 175.206 88.309" xml:space="preserve"><metadata id="metadata53"/><style id="style2" type="text/css">.st1{fill:#fff}</style><title id="title4">support</title><g id="g4591" transform="matrix(1.1623322,0,0,1.1623322,4.376678,-18.86997)"><rect id="rect4576" width="123.206" height="48.445" x="10" y="30" ry="5.397" style="opacity:1;vector-effect:none;fill:#f96854;fill-opacity:1;stroke:none;stroke-width:1.95915079;stroke-linecap:butt;stroke-linejoin:miter;stroke-miterlimit:4;stroke-dasharray:none;stroke-dashoffset:0;stroke-opacity:1"/><g id="g4574" transform="translate(9.401915,29.145936)"><g id="g4557" transform="translate(-120.21531,7.9502949)"><path id="path8" d="m 143.8,12.9 h 0.7 c 6.4,0.2 11.5,5.6 11.3,12 -0.2,6.2 -5.1,11.1 -11.3,11.3 h -5.7 c 0,-3.9 0,-7.8 0,-11.7 0.1,-2.9 2.5,-5.3 5.4,-5.2 2.9,0.1 5.3,2.5 5.2,5.4 -0.1,2.9 -2.5,5.3 -5.4,5.2 -0.8,0 -1.7,-0.2 -2.4,-0.6 0,1.3 0,2.5 0,3.8 1.7,0.5 3.6,0.5 5.3,-0.1 4.7,-1.5 7.2,-6.6 5.6,-11.2 -1.5,-4.7 -6.6,-7.2 -11.2,-5.6 -3.6,1.2 -6,4.5 -6.1,8.3 0,3.9 0,7.8 0,11.7 h -2.8 v -12 c 0.1,-4 2.3,-7.6 5.6,-9.6 1.9,-1.1 3.8,-1.7 5.8,-1.7 z" class="st1" style="fill:#fff"/><path id="path10" d="m 186.5,13.9 h 1.9 c 0,1.4 0,2.9 0,4.3 h 2.8 c 0,0.6 0,1.3 0,1.9 h -2.8 c 0,3.1 0,6.2 0,9.3 h -1.9 c 0,-3.1 0,-6.2 0,-9.3 h -1.1 c 0,-0.6 0,-1.3 0,-1.9 h 1.1 c 0,-1.4 -0.1,-2.9 0,-4.3 z" class="st1" style="fill:#fff"/><path id="path12" d="m 177.5,17.8 c 3.3,-0.7 6.5,1.5 7.2,4.8 0,0.1 0,0.2 0,0.2 0.1,0.6 0.1,1.2 0.1,1.8 0,1.6 0,3.2 0,4.8 h -1.9 c 0,-0.4 0,-0.8 0,-1.2 -2.4,2.3 -6.3,2.2 -8.6,-0.2 -2.3,-2.4 -2.2,-6.3 0.2,-8.6 0.8,-0.9 1.9,-1.4 3,-1.6 z m 0.8,1.7 c -2.3,0.2 -4,2.3 -3.8,4.6 0,0.3 0.1,0.5 0.2,0.8 0.2,0.8 0.7,1.5 1.3,2 0.7,0.6 1.6,1 2.6,1 0.8,0 1.6,-0.1 2.3,-0.5 2,-1.2 2.7,-3.7 1.6,-5.8 -1,-1.4 -2.5,-2.2 -4.2,-2.1 z" class="st1" style="fill:#fff"/><path id="path14" d="m 203.3,17.7 c 2,-0.3 4,0.5 5.3,1.9 l -7.9,6.6 c 1.4,1.9 4,2.3 5.9,0.9 1.3,-0.9 1.9,-2.5 1.7,-4 h 1.9 c 0.1,1.3 -0.2,2.6 -0.9,3.8 -0.5,0.9 -1.2,1.6 -2.1,2.1 -2.9,1.7 -6.6,0.8 -8.4,-2.1 -0.7,-1.1 -1,-2.4 -0.9,-3.6 0.1,-1 0.4,-2 1,-2.8 1.1,-1.5 2.6,-2.5 4.4,-2.8 z m -2.8,3.8 c -0.6,0.9 -0.8,2 -0.6,3 l 5.6,-4.7 c -0.3,-0.1 -0.7,-0.2 -1,-0.2 -1.6,-0.2 -3.1,0.6 -4,1.9 z" class="st1" style="fill:#fff"/><path id="path16" d="m 216.6,17.7 c 1.3,-0.1 2.6,0.2 3.6,0.9 2.9,1.8 3.7,5.5 1.9,8.4 -1.8,2.9 -5.5,3.7 -8.4,1.9 -2.9,-1.8 -3.7,-5.5 -1.9,-8.4 0.5,-0.8 1.2,-1.5 2,-2 0.9,-0.5 1.8,-0.8 2.8,-0.8 z m 0.1,1.8 c -2.3,0.2 -4.1,2.2 -3.9,4.5 0.2,2.3 2.2,4.1 4.5,3.9 2.3,-0.2 4.1,-2.2 3.9,-4.5 -0.1,-1.2 -0.7,-2.4 -1.7,-3.1 -0.8,-0.6 -1.8,-0.8 -2.8,-0.8 z" class="st1" style="fill:#fff"/><path id="path18" d="m 226,18.9 c 1.2,-1.1 2.8,-1.5 4.3,-1.1 1.2,0.3 2.2,1 2.9,1.9 0.6,0.8 1,1.8 1,2.8 0,1.5 0,3 0,4.6 v 2.2 h -1.9 c 0,-2.2 0,-4.5 0,-6.7 0,-1.1 -0.6,-2.1 -1.5,-2.6 -0.8,-0.5 -1.8,-0.6 -2.7,-0.3 -1.1,0.4 -1.9,1.5 -2.1,2.7 0,0.5 0,1 0,1.6 0,1.8 0,3.6 0,5.4 h -1.9 c 0,-3.7 0,-7.4 0,-11.1 h 1.9 c 0,0.1 0,0.3 0,0.6 z" class="st1" style="fill:#fff"/><path id="path20" d="m 161.1,20 c 2.1,-2.6 5.9,-3.1 8.6,-1 2.6,2.1 3.1,5.9 1,8.6 -1.1,1.3 -2.6,2.2 -4.3,2.3 -1,0.1 -2,-0.1 -2.8,-0.6 -0.7,-0.3 -1.3,-0.8 -1.8,-1.3 0,1.9 0,3.8 0,5.7 h -1.9 c 0,-3.3 0,-6.6 0,-9.9 -0.1,-1.4 0.4,-2.7 1.2,-3.8 z m 4,-0.4 c -2.3,0.4 -3.8,2.6 -3.4,4.9 0.4,2.3 2.6,3.8 4.9,3.4 2.3,-0.4 3.8,-2.6 3.4,-4.9 -0.2,-1.2 -1,-2.3 -2,-2.9 -0.9,-0.5 -1.9,-0.7 -2.9,-0.5 z" class="st1" style="fill:#fff"/><path id="path22" d="m 192,18.2 h 1.8 c 0,0.6 0,1.1 0,1.7 1.2,-1.1 2.8,-1.8 4.4,-1.7 0,0.6 0,1.3 0,1.9 -2.3,-0.1 -4.3,1.7 -4.4,4.1 0,0 0,0.1 0,0.1 0,1.7 0,3.4 0,5.1 H 192 c 0.1,-3.8 0,-7.5 0,-11.2 z" class="st1" style="fill:#fff"/></g><text xml:space="preserve" style="font-style:normal;font-variant:normal;font-weight:400;font-stretch:normal;font-size:10.8520174px;line-height:4.5em;font-family:'Source Sans Pro';-inkscape-font-specification:'Source Sans Pro';text-align:end;letter-spacing:0;word-spacing:0;text-anchor:end;fill:#000;fill-opacity:1;stroke:none;stroke-width:.73991024" id="text4561" x="114.899" y="14.87"><tspan id="tspan4559" x="114.899" y="14.87" style="font-style:normal;font-variant:normal;font-weight:400;font-stretch:normal;font-family:'Source Sans Pro';-inkscape-font-specification:'Source Sans Pro';fill:#fff;stroke-width:.73991024">support us on</tspan></text></g></g></svg>